<svg xmlns="http://www.w3.org/2000/svg" xmlns:xlink="http://www.w3.org/1999/xlink" width="1200" zoomAndPan="magnify" viewBox="0 0 900 599.999999" height="800" preserveAspectRatio="xMidYMid meet" version="1.0"><defs><clipPath id="b332e07832"><path d="M 370.609375 60 L 840 60 L 840 122.121094 L 370.609375 122.121094 Z M 370.609375 60 " clip-rule="nonzero"/></clipPath><clipPath id="8cc8933ff9"><path d="M 0.609375 0 L 470 0 L 470 62.121094 L 0.609375 62.121094 Z M 0.609375 0 " clip-rule="nonzero"/></clipPath><clipPath id="db21257929"><rect x="0" width="470" y="0" height="63"/></clipPath><clipPath id="8e2be7ccf1"><path d="M 370.609375 148.9375 L 840 148.9375 L 840 211.0625 L 370.609375 211.0625 Z M 370.609375 148.9375 " clip-rule="nonzero"/></clipPath><clipPath id="77edd365de"><path d="M 0.609375 0.9375 L 470 0.9375 L 470 63.0625 L 0.609375 63.0625 Z M 0.609375 0.9375 " clip-rule="nonzero"/></clipPath><clipPath id="69b93f57b5"><rect x="0" width="470" y="0" height="64"/></clipPath><clipPath id="d9940a274a"><path d="M 370.609375 238.0625 L 840 238.0625 L 840 300.183594 L 370.609375 300.183594 Z M 370.609375 238.0625 " clip-rule="nonzero"/></clipPath><clipPath id="a7518c5500"><path d="M 0.609375 0.0625 L 470 0.0625 L 470 62.183594 L 0.609375 62.183594 Z M 0.609375 0.0625 " clip-rule="nonzero"/></clipPath><clipPath id="4c67570740"><rect x="0" width="470" y="0" height="63"/></clipPath><clipPath id="775666167e"><path d="M 60 327.183594 L 840 327.183594 L 840 389.304688 L 60 389.304688 Z M 60 327.183594 " clip-rule="nonzero"/></clipPath><clipPath id="dfafd1761f"><path d="M 0 0.183594 L 780 0.183594 L 780 62.304688 L 0 62.304688 Z M 0 0.183594 " clip-rule="nonzero"/></clipPath><clipPath id="f13973ef6a"><rect x="0" width="780" y="0" height="63"/></clipPath><clipPath id="83022ab0b1"><path d="M 60 416.304688 L 840 416.304688 L 840 478.425781 L 60 478.425781 Z M 60 416.304688 " clip-rule="nonzero"/></clipPath><clipPath id="2547debd4f"><path d="M 0 0.304688 L 780 0.304688 L 780 62.425781 L 0 62.425781 Z M 0 0.304688 " clip-rule="nonzero"/></clipPath><clipPath id="2f88ab416d"><rect x="0" width="780" y="0" height="63"/></clipPath><clipPath id="ec17eb8e30"><path d="M 60 59.816406 L 351.394531 59.816406 L 351.394531 300 L 60 300 Z M 60 59.816406 " clip-rule="nonzero"/></clipPath><clipPath id="1f82f98944"><path d="M 0 0.816406 L 291.394531 0.816406 L 291.394531 241 L 0 241 Z M 0 0.816406 " clip-rule="nonzero"/></clipPath><clipPath id="76cee6bfa9"><rect x="0" width="292" y="0" height="241"/></clipPath></defs><g clip-path="url(#b332e07832)"><g transform="matrix(1, 0, 0, 1, 370, 60)"><g clip-path="url(#db21257929)"><g clip-path="url(#8cc8933ff9)"><path fill="#545454" d="M 0.609375 0 L 469.917969 0 L 469.917969 62.121094 L 0.609375 62.121094 Z M 0.609375 0 " fill-opacity="1" fill-rule="nonzero"/></g></g></g></g><g clip-path="url(#8e2be7ccf1)"><g transform="matrix(1, 0, 0, 1, 370, 148)"><g clip-path="url(#69b93f57b5)"><g clip-path="url(#77edd365de)"><path fill="#545454" d="M 0.609375 0.9375 L 469.917969 0.9375 L 469.917969 63.0625 L 0.609375 63.0625 Z M 0.609375 0.9375 " fill-opacity="1" fill-rule="nonzero"/></g></g></g></g><g clip-path="url(#d9940a274a)"><g transform="matrix(1, 0, 0, 1, 370, 238)"><g clip-path="url(#4c67570740)"><g clip-path="url(#a7518c5500)"><path fill="#545454" d="M 0.609375 0.0625 L 469.917969 0.0625 L 469.917969 62.183594 L 0.609375 62.183594 Z M 0.609375 0.0625 " fill-opacity="1" fill-rule="nonzero"/></g></g></g></g><g clip-path="url(#775666167e)"><g transform="matrix(1, 0, 0, 1, 60, 327)"><g clip-path="url(#f13973ef6a)"><g clip-path="url(#dfafd1761f)"><path fill="#545454" d="M 0 0.183594 L 779.917969 0.183594 L 779.917969 62.304688 L 0 62.304688 Z M 0 0.183594 " fill-opacity="1" fill-rule="nonzero"/></g></g></g></g><g clip-path="url(#83022ab0b1)"><g transform="matrix(1, 0, 0, 1, 60, 416)"><g clip-path="url(#2f88ab416d)"><g clip-path="url(#2547debd4f)"><path fill="#545454" d="M 0 0.304688 L 779.917969 0.304688 L 779.917969 62.425781 L 0 62.425781 Z M 0 0.304688 " fill-opacity="1" fill-rule="nonzero"/></g></g></g></g><g clip-path="url(#ec17eb8e30)"><g transform="matrix(1, 0, 0, 1, 60, 59)"><g clip-path="url(#76cee6bfa9)"><g clip-path="url(#1f82f98944)"><path fill="#545454" d="M 0 0.816406 L 291.785156 0.816406 L 291.785156 241 L 0 241 Z M 0 0.816406 " fill-opacity="1" fill-rule="nonzero"/></g></g></g></g></svg>